# xmcd
#
# Track frame offsets:
#	150
#	20126
#	36488
#	55846
#	71307
#	87147
#	106598
#	122191
#	138088
#	156593
#	170763
#	187004
#	206480
#	222233
#	241840
#
# Disc length: 3457 seconds
#
# Revision: 1
# Processed by: cddbd v1.5.2PL0 Copyright (c) Steve Scherf et al.
# Submitted via: audiograbber 1.83.01
#
DISCID=d60d7f0f
DTITLE=Various Artist - Hot Country Hits Collection V. 47
DYEAR=1997
DGENRE=Karaoke
TTITLE0=Gone Country
TTITLE1=Heart Trouble
TTITLE2=When Love Finds You
TTITLE3=Take Me As I Am
TTITLE4=Hard Lovin't Woman
TTITLE5=One Boy, One Girl
TTITLE6=Girls With Guitars
TTITLE7=Third Rate Romance
TTITLE8=Piece Of My Heart
TTITLE9=Little Miss Honky Tonk
TTITLE10=When My Ship Comes In
TTITLE11=Starting Over Again
TTITLE12=Life's A Dance
TTITLE13=I Guess You Had To Be There
TTITLE14=Grandpa Told Me So
EXTD=
EXTT0=
EXTT1=
EXTT2=
EXTT3=
EXTT4=
EXTT5=
EXTT6=
EXTT7=
EXTT8=
EXTT9=
EXTT10=
EXTT11=
EXTT12=
EXTT13=
EXTT14=
PLAYORDER=
